<?xml version="1.0" encoding="UTF-8"?> <!-- Generator: Adobe Illustrator 24.1.2, SVG Export Plug-In . SVG Version: 6.00 Build 0) --> <svg xmlns="http://www.w3.org/2000/svg" xmlns:xlink="http://www.w3.org/1999/xlink" version="1.1" id="Layer_1" x="0px" y="0px" viewBox="0 0 249 30" style="enable-background:new 0 0 249 30;" xml:space="preserve"> <style type="text/css"> .st0{fill:#A51C22;} </style> <path class="st0" d="M23.8,13.2c2.4,0,4.2,0.4,5.4,1.3c1.2,0.9,1.9,2.2,1.9,4c0,1-0.2,1.9-0.5,2.7c-0.3,0.8-0.8,1.5-1.5,2 c-0.7,0.5-1.6,1-2.6,1.2c-1.1,0.3-2.3,0.4-3.8,0.4c-6,0-12,0-18,0C5.4,24,6,23.2,6.7,22.4c0.6-0.8,1.3-1.7,1.9-2.5 c4.9,0,9.7,0,14.6,0c0.7,0,1.2-0.1,1.6-0.3c0.3-0.2,0.5-0.6,0.5-1.1c0-0.5-0.1-0.9-0.5-1.1c-0.3-0.2-0.9-0.3-1.6-0.3 c-3.5,0-7,0-10.5,0c-1.3,0-2.3-0.1-3.2-0.4c-0.9-0.3-1.6-0.7-2.2-1.1c-0.6-0.5-1.1-1.1-1.3-1.8c-0.3-0.7-0.4-1.4-0.4-2.3 c0-0.9,0.2-1.7,0.5-2.5c0.3-0.7,0.8-1.4,1.5-1.9c0.6-0.5,1.5-0.9,2.5-1.2c1.1-0.3,2.3-0.4,3.8-0.4c5.6,0,11.2,0,16.8,0 c-0.6,0.8-1.3,1.7-1.9,2.5c-0.6,0.8-1.3,1.7-1.9,2.5c-4.5,0-9,0-13.5,0c-0.7,0-1.2,0.1-1.6,0.3c-0.3,0.2-0.5,0.5-0.5,1 c0,0.5,0.2,0.9,0.5,1.1c0.4,0.2,0.9,0.3,1.6,0.3C16.8,13.2,20.3,13.2,23.8,13.2 M54.1,24.8c-6.1,0-12.3,0-18.4,0 c-0.7,0-1.4-0.2-2-0.6c-0.5-0.4-0.8-1-0.8-1.8c0-0.4,0.1-0.9,0.3-1.3c0.2-0.4,0.5-0.8,1-1.1c1.2-0.9,2.3-1.9,3.5-2.8 c1.2-0.9,2.4-1.9,3.6-2.8c0.8-0.6,1.5-1.2,2.1-1.6c0.6-0.5,1.1-0.8,1.5-1.2c0.4-0.3,0.8-0.6,1.1-0.8c0.3-0.2,0.5-0.4,0.7-0.5 c-0.3,0-0.6,0-0.9,0.1c-0.4,0-0.8,0-1.3,0c-0.5,0-1.1,0-1.9,0c-0.7,0-1.6,0-2.5,0c-2.6,0-5.2,0-7.8,0c0.6-0.8,1.3-1.7,1.9-2.5 c0.6-0.8,1.3-1.7,1.9-2.5c6,0,11.9,0,17.9,0c0.8,0,1.4,0.2,2,0.6c0.6,0.4,0.8,1,0.8,1.8c0,0.4-0.1,0.9-0.4,1.3 c-0.2,0.4-0.6,0.8-1,1.1c-1.2,0.9-2.4,1.9-3.6,2.8c-1.2,0.9-2.4,1.9-3.6,2.8c-0.8,0.6-1.5,1.2-2.1,1.6c-0.6,0.4-1.1,0.8-1.5,1.1 c-0.4,0.3-0.7,0.6-1,0.8c-0.3,0.2-0.5,0.4-0.7,0.5c0.2,0,0.6,0,1.2,0c0.5,0,1.2,0,1.9,0c0.7,0,1.5,0,2.3,0c0.8,0,1.6,0,2.3,0 c2.3,0,4.7,0,7,0c-0.6,0.8-1.2,1.7-1.8,2.5C55.3,23.2,54.7,24,54.1,24.8z M80.8,24.8c-0.6-0.8-1.2-1.7-1.8-2.5 c-0.6-0.8-1.2-1.7-1.8-2.5c-1.6,0-3.3,0-4.9,0c-0.6,0-1.2,0-1.8,0c-0.6,0-1.2,0-1.6,0.1c0.3-0.3,0.6-0.8,0.9-1.3 c0.4-0.5,0.7-1,1-1.5c0.6-0.9,1.2-1.7,1.7-2.6c0.6-0.9,1.1-1.7,1.7-2.6c1.5,2.1,3.1,4.3,4.6,6.4c1.5,2.1,3,4.3,4.5,6.4 c2.4,0,4.7,0,7.1,0c-2.1-2.9-4.2-5.8-6.2-8.8c-2.1-2.9-4.2-5.8-6.2-8.8c-0.4-0.6-0.9-1.1-1.6-1.5c-0.6-0.4-1.4-0.7-2.3-0.7 c-0.9,0-1.7,0.2-2.3,0.6c-0.6,0.4-1.1,0.9-1.6,1.5c-2,2.9-4,5.8-6,8.8c-2,2.9-4,5.8-6.1,8.8C65.8,24.8,73.3,24.8,80.8,24.8z M114.6,14.9c0.8,0.2,1.6,0.7,2.2,1.5c0.6,0.7,0.9,1.7,0.9,2.8c0,0.8-0.1,1.6-0.4,2.2c-0.2,0.7-0.7,1.3-1.3,1.8 c-0.6,0.5-1.4,0.9-2.4,1.2c-1,0.3-2.3,0.4-3.8,0.4c-5.7,0-11.4,0-17,0c0-2,0-3.9,0-5.9c0-2,0-3.9,0-5.9c5.7,0,11.4,0,17.2,0 c0.5,0,0.8-0.1,1.2-0.3c0.3-0.2,0.5-0.5,0.5-1c0-0.5-0.2-0.8-0.5-1c-0.4-0.2-0.7-0.3-1.2-0.3c-5.7,0-11.4,0-17.2,0 c0.7-0.8,1.3-1.7,2-2.5c0.7-0.8,1.4-1.7,2.1-2.5c4.3,0,8.6,0,12.8,0c1.2,0,2.2,0.1,3.2,0.3c0.9,0.2,1.7,0.6,2.4,1 c0.6,0.4,1.2,1,1.5,1.7c0.4,0.7,0.5,1.4,0.5,2.3c0,0.6-0.1,1.1-0.2,1.5c-0.2,0.4-0.3,0.8-0.6,1.2c-0.2,0.3-0.5,0.6-0.9,0.8 C115.2,14.6,114.9,14.8,114.6,14.9z M98.7,17.2c0,0.9,0,1.8,0,2.7c3.7,0,7.4,0,11,0c0.6,0,1.1-0.1,1.4-0.3c0.3-0.2,0.4-0.6,0.4-1 c0-0.4-0.1-0.8-0.4-1c-0.3-0.2-0.8-0.3-1.4-0.3C106.1,17.2,102.4,17.2,98.7,17.2z M128.8,24.8c0.6-0.8,1.2-1.7,1.8-2.5 c0.6-0.8,1.2-1.7,1.8-2.5c1.6,0,3.2,0,4.9,0c0.6,0,1.2,0,1.8,0c0.6,0,1.2,0,1.6,0.1c-0.3-0.3-0.6-0.8-1-1.3c-0.3-0.5-0.7-1-1-1.5 c-0.6-0.8-1.2-1.7-1.7-2.6c-0.6-0.9-1.1-1.7-1.7-2.6c-1.5,2.1-3.1,4.3-4.6,6.4c-1.5,2.1-3,4.3-4.5,6.4c-2.4,0-4.7,0-7.1,0 c2.1-2.9,4.1-5.8,6.2-8.8c2.1-2.9,4.1-5.8,6.2-8.8c0.4-0.6,0.9-1.1,1.6-1.5c0.6-0.4,1.4-0.7,2.3-0.7c0.9,0,1.7,0.2,2.3,0.6 c0.6,0.4,1.1,0.9,1.6,1.5c2,2.9,4,5.8,6,8.8c2,2.9,4,5.8,6.1,8.8C143.8,24.8,136.3,24.8,128.8,24.8z M178.2,15 c0,1.4-0.3,2.7-0.9,3.9c-0.6,1.2-1.4,2.2-2.4,3.1c-1,0.9-2.2,1.6-3.7,2.1c-1.4,0.5-3,0.8-4.7,0.8c-4.3,0-8.7,0-13,0c0-2,0-4,0-6 c0-2,0-4,0-6c2,0,4,0,6,0c0,1.2,0,2.4,0,3.6c0,1.2,0,2.4,0,3.5c2.3,0,4.6,0,7,0c0.8,0,1.6-0.1,2.3-0.3c0.7-0.2,1.3-0.5,1.8-0.9 c0.5-0.4,0.9-0.9,1.2-1.5c0.3-0.6,0.5-1.2,0.5-1.9c0-0.7-0.2-1.3-0.5-1.9c-0.3-0.6-0.7-1.1-1.2-1.5c-0.5-0.4-1.1-0.7-1.8-1 c-0.7-0.2-1.5-0.4-2.2-0.4c-4.3,0-8.7,0-13,0c0.6-0.8,1.3-1.7,1.9-2.5c0.6-0.8,1.3-1.7,1.9-2.5c3.1,0,6.1,0,9.2,0 c1.7,0,3.2,0.2,4.7,0.7c1.4,0.5,2.7,1.1,3.7,2c1,0.8,1.8,1.8,2.4,3C177.9,12.3,178.2,13.6,178.2,15z M187.3,24.8c-2,0-4,0-6,0 c0-3.2,0-6.5,0-9.7c0-3.2,0-6.5,0-9.7c2,0,4,0,6,0c0,3.2,0,6.5,0,9.7C187.3,18.4,187.3,21.6,187.3,24.8z M215.7,19.9 c-0.6,0.8-1.3,1.7-1.9,2.5c-0.6,0.8-1.3,1.7-1.9,2.5c-3.3,0-6.5,0-9.7,0c-1.7,0-3.2-0.3-4.7-0.8c-1.4-0.5-2.7-1.2-3.7-2.1 c-1-0.9-1.8-1.9-2.4-3.1c-0.6-1.2-0.9-2.5-0.9-3.9c0-1.4,0.3-2.7,0.9-3.9c0.6-1.2,1.4-2.2,2.4-3c1-0.8,2.3-1.5,3.7-1.9 c1.4-0.5,3-0.7,4.7-0.7c4.5,0,9,0,13.6,0c-0.6,0.8-1.3,1.7-1.9,2.5c-0.6,0.8-1.3,1.7-1.9,2.5c-3.3,0-6.5,0-9.7,0 c-0.8,0-1.6,0.1-2.3,0.3c-0.7,0.2-1.3,0.6-1.8,1c-0.5,0.4-0.9,0.9-1.2,1.5c-0.3,0.6-0.4,1.2-0.4,1.9c0,0.7,0.2,1.3,0.4,1.9 c0.3,0.6,0.7,1.1,1.2,1.5c0.5,0.4,1.1,0.7,1.8,0.9c0.7,0.2,1.5,0.3,2.3,0.3C206.6,19.9,211.1,19.9,215.7,19.9z M235.7,13.2 c2.4,0,4.2,0.4,5.4,1.3c1.2,0.9,1.9,2.2,1.9,4c0,1-0.2,1.9-0.5,2.7c-0.3,0.8-0.8,1.5-1.5,2c-0.7,0.5-1.5,1-2.6,1.2 c-1.1,0.3-2.3,0.4-3.8,0.4c-6,0-12,0-18.1,0c0.6-0.8,1.3-1.7,1.9-2.5c0.6-0.8,1.3-1.7,1.9-2.5c4.9,0,9.8,0,14.7,0 c0.7,0,1.2-0.1,1.6-0.3c0.3-0.2,0.5-0.6,0.5-1.1c0-0.5-0.2-0.9-0.5-1.1c-0.3-0.2-0.8-0.3-1.6-0.3c-3.5,0-7,0-10.5,0 c-1.3,0-2.3-0.1-3.2-0.4c-0.9-0.3-1.7-0.6-2.3-1.1c-0.6-0.5-1-1.1-1.3-1.8c-0.3-0.7-0.4-1.4-0.4-2.3c0-0.9,0.2-1.7,0.5-2.5 c0.3-0.7,0.8-1.4,1.5-1.9c0.7-0.5,1.5-0.9,2.6-1.2c1.1-0.3,2.3-0.4,3.8-0.4c5.6,0,11.2,0,16.9,0c-0.6,0.8-1.3,1.7-1.9,2.5 c-0.6,0.8-1.3,1.7-1.9,2.5c-4.5,0-9,0-13.5,0c-0.7,0-1.2,0.1-1.6,0.3c-0.3,0.2-0.5,0.5-0.5,1c0,0.5,0.2,0.9,0.5,1.1 c0.3,0.2,0.9,0.3,1.6,0.3C228.7,13.2,232.2,13.2,235.7,13.2z"></path> </svg> 